<?xml version="1.0" encoding="UTF-8" standalone="no"?>
<svg
   xmlns:dc="http://purl.org/dc/elements/1.1/"
   xmlns:cc="http://creativecommons.org/ns#"
   xmlns:rdf="http://www.w3.org/1999/02/22-rdf-syntax-ns#"
   xmlns:svg="http://www.w3.org/2000/svg"
   xmlns="http://www.w3.org/2000/svg"
   xmlns:sodipodi="http://sodipodi.sourceforge.net/DTD/sodipodi-0.dtd"
   xmlns:inkscape="http://www.inkscape.org/namespaces/inkscape"
   inkscape:export-ydpi="192"
   inkscape:export-xdpi="192"
   inkscape:export-filename="/Users/ianpablo/www/projeto/mobile/src/assets/logo@2x.png"
   width="182"
   height="44"
   viewBox="0 0 182 44"
   fill="none"
   version="1.1"
   id="svg50"
   sodipodi:docname="logo.svg"
   inkscape:version="1.0 (4035a4f, 2020-05-01)">
  <metadata
     id="metadata56">
    <rdf:RDF>
      <cc:Work
         rdf:about="">
        <dc:format>image/svg+xml</dc:format>
        <dc:type
           rdf:resource="http://purl.org/dc/dcmitype/StillImage" />
        <dc:title></dc:title>
      </cc:Work>
    </rdf:RDF>
  </metadata>
  <defs
     id="defs54" />
  <sodipodi:namedview
     inkscape:document-rotation="0"
     pagecolor="#ffffff"
     bordercolor="#666666"
     borderopacity="1"
     objecttolerance="10"
     gridtolerance="10"
     guidetolerance="10"
     inkscape:pageopacity="0"
     inkscape:pageshadow="2"
     inkscape:window-width="1440"
     inkscape:window-height="776"
     id="namedview52"
     showgrid="false"
     inkscape:zoom="2.7029887"
     inkscape:cx="145.53896"
     inkscape:cy="30.326252"
     inkscape:window-x="0"
     inkscape:window-y="23"
     inkscape:window-maximized="1"
     inkscape:current-layer="svg50" />
  <path
     id="path1653"
     d="M 34.896065,32.304213 22.464728,30.582641 17.593376,25.711862 c -1.43e-4,-1.43e-4 -2.86e-4,-4.3e-4 -5.72e-4,-7.16e-4 -0.180367,-0.180796 -0.18051,-0.474591 -0.0014,-0.6541 0.117861,-0.117718 0.255747,-0.135311 0.327408,-0.135311 0.07123,0 0.208259,0.01745 0.324833,0.13431 2.86e-4,2.86e-4 5.72e-4,4.29e-4 8.58e-4,7.15e-4 v 1.43e-4 l 3.683015,3.682872 c 1.43e-4,1.43e-4 2.86e-4,1.43e-4 4.29e-4,4.29e-4 1.43e-4,1.43e-4 2.86e-4,2.86e-4 4.29e-4,4.29e-4 0.01044,0.01059 0.02217,0.01931 0.0329,0.02975 0.01602,0.01473 0.0319,0.03004 0.04849,0.04363 0.540673,0.499622 1.229245,0.752509 1.919819,0.752509 0.725189,0 1.451093,-0.275772 2.003924,-0.827316 1.103088,-1.105091 1.102802,-2.902186 -7.15e-4,-4.005846 L 15.822028,14.622339 C 15.620777,14.421088 15.348009,14.30809 15.063369,14.30809 H 4.2479016 c -0.5925951,0 -1.0727644,0.480313 -1.0727644,1.072765 0,0.592452 0.4801693,1.072764 1.0727644,1.072764 H 14.619101 l 9.796342,9.796341 c 0.267762,0.267905 0.267476,0.704449 8.58e-4,0.971496 -0.267905,0.267475 -0.704592,0.267475 -0.972497,0 -4.29e-4,-4.3e-4 -0.001,-8.59e-4 -0.0014,-0.0013 l -3.679439,-3.679152 c -1.43e-4,-1.43e-4 -2.86e-4,-4.3e-4 -5.72e-4,-7.16e-4 -2.86e-4,-2.86e-4 -5.72e-4,-4.29e-4 -8.58e-4,-7.15e-4 v -1.43e-4 c -4.29e-4,-4.29e-4 -10e-4,-8.58e-4 -0.0014,-0.0013 -0.491469,-0.491469 -1.145426,-0.762092 -1.841292,-0.762092 -0.696439,0 -1.351254,0.271052 -1.844869,0.764094 -0.988087,0.989947 -1.010687,2.583789 -0.07323,3.605204 0.0063,0.0077 0.01373,0.01473 0.02017,0.02217 0.01816,0.01931 0.03404,0.03976 0.05278,0.05864 2.86e-4,2.86e-4 5.72e-4,5.72e-4 0.001,8.58e-4 l 1.43e-4,1.43e-4 5.127671,5.127242 c 0.165206,0.165205 0.379758,0.27191 0.611333,0.304093 l 12.778483,1.769489 c 0.240728,0.03561 0.695723,0.196387 0.695723,0.551687 2.86e-4,0.193812 -0.09841,0.3214 -0.157196,0.38033 -0.05907,0.05907 -0.187233,0.158197 -0.381904,0.158197 H 20.457228 L 9.0826361,24.142193 C 8.8815285,23.941085 8.6086172,23.827944 8.3239771,23.827944 H 4.2479016 c -0.5925951,0 -1.0727644,0.480313 -1.0727644,1.072765 0,0.592452 0.4801693,1.072764 1.0727644,1.072764 h 3.631808 L 19.254302,37.349496 c 0.201107,0.201107 0.474019,0.314248 0.758659,0.314248 h 14.73592 c 0.717894,0 1.392448,-0.279634 1.899795,-0.787409 0.506773,-0.507346 0.785549,-1.181757 0.784691,-1.897792 1.43e-4,-1.353971 -1.039437,-2.453197 -2.537302,-2.67433 z"
     style="stroke:none;stroke-width:0.143035;fill:#322153;fill-opacity:1" />
  <path
     id="path1655"
     d="m 36.961208,4.7170045 c -1.629029,0 -3.238605,0.6051822 -4.487159,1.6562052 -1.248412,-1.0511661 -2.857559,-1.6562052 -4.486015,-1.6562052 -3.67386,0 -6.551729,2.8778692 -6.551729,6.5518725 0,4.362432 3.734364,7.671553 8.907234,12.246106 l 1.373138,1.369134 c 0.209404,0.208831 0.483459,0.313104 0.757515,0.313104 0.273912,0 0.547825,-0.104273 0.757085,-0.312675 l 1.374712,-1.36942 c 5.172441,-4.574267 8.906948,-7.883674 8.906948,-12.246249 0,-3.6740033 -2.878012,-6.5518725 -6.551729,-6.5518725 z m -3.80059,17.2120035 c -0.01588,0.01402 -0.03147,0.02861 -0.04634,0.04363 l -0.639796,0.637222 -0.638796,-0.636936 c -0.01516,-0.01516 -0.03075,-0.02989 -0.04677,-0.04406 -5.241527,-4.635343 -8.207077,-7.415948 -8.207077,-10.660131 0,-2.5119849 1.894216,-4.4063438 4.406201,-4.4063438 1.368704,0 2.773883,0.6562458 3.666852,1.7125611 0.203825,0.2410144 0.503627,0.3801877 0.819306,0.3801877 0.315679,0 0.61548,-0.1390303 0.819306,-0.3801877 0.893112,-1.0563153 2.298576,-1.7125611 3.667996,-1.7125611 2.511985,0 4.4062,1.8943589 4.4062,4.4063438 -2.86e-4,3.244612 -2.965835,6.025074 -8.207076,10.660274 z"
     style="stroke:none;stroke-width:0.143035;fill:#34cb6c;fill-opacity:1" />
  <g
     style="stroke:#008000"
     id="g1659"
     transform="matrix(0.14303525,0,0,0.14303525,3.1751372,1.0215458)" />
  <g
     style="stroke:#008000"
     id="g1661"
     transform="matrix(0.14303525,0,0,0.14303525,3.1751372,1.0215458)" />
  <g
     style="stroke:#008000"
     id="g1663"
     transform="matrix(0.14303525,0,0,0.14303525,3.1751372,1.0215458)" />
  <g
     style="stroke:#008000"
     id="g1665"
     transform="matrix(0.14303525,0,0,0.14303525,3.1751372,1.0215458)" />
  <g
     style="stroke:#008000"
     id="g1667"
     transform="matrix(0.14303525,0,0,0.14303525,3.1751372,1.0215458)" />
  <g
     style="stroke:#008000"
     id="g1669"
     transform="matrix(0.14303525,0,0,0.14303525,3.1751372,1.0215458)" />
  <g
     style="stroke:#008000"
     id="g1671"
     transform="matrix(0.14303525,0,0,0.14303525,3.1751372,1.0215458)" />
  <g
     style="stroke:#008000"
     id="g1673"
     transform="matrix(0.14303525,0,0,0.14303525,3.1751372,1.0215458)" />
  <g
     style="stroke:#008000"
     id="g1675"
     transform="matrix(0.14303525,0,0,0.14303525,3.1751372,1.0215458)" />
  <g
     style="stroke:#008000"
     id="g1677"
     transform="matrix(0.14303525,0,0,0.14303525,3.1751372,1.0215458)" />
  <g
     style="stroke:#008000"
     id="g1679"
     transform="matrix(0.14303525,0,0,0.14303525,3.1751372,1.0215458)" />
  <g
     style="stroke:#008000"
     id="g1681"
     transform="matrix(0.14303525,0,0,0.14303525,3.1751372,1.0215458)" />
  <g
     style="stroke:#008000"
     id="g1683"
     transform="matrix(0.14303525,0,0,0.14303525,3.1751372,1.0215458)" />
  <g
     style="stroke:#008000"
     id="g1685"
     transform="matrix(0.14303525,0,0,0.14303525,3.1751372,1.0215458)" />
  <g
     style="stroke:#008000"
     id="g1687"
     transform="matrix(0.14303525,0,0,0.14303525,3.1751372,1.0215458)" />
  <text
     xml:space="preserve"
     style="font-style:normal;font-weight:normal;font-size:37.9293px;line-height:1.25;font-family:sans-serif;fill:#34cb6c;fill-opacity:1;stroke:none;stroke-width:0.948231"
     x="64.976311"
     y="33.271255"
     id="text2569"><tspan
       sodipodi:role="line"
       id="tspan2567"
       x="64.976311"
       y="33.271255"
       style="font-style:normal;font-variant:normal;font-weight:normal;font-stretch:normal;font-family:Skia;-inkscape-font-specification:Skia;fill:#34cb6c;fill-opacity:1;stroke-width:0.948231">Doa<tspan
   style="font-style:normal;font-variant:normal;font-weight:normal;font-stretch:normal;font-family:Skia;-inkscape-font-specification:Skia;fill:#322153;fill-opacity:1;stroke-width:0.948231"
   id="tspan2571">pp</tspan></tspan></text>
</svg>
